nColumns=28
nRows=80
DataType=double
version=3
OpenSimVersion=4.1
endheader
time	ground_force_1_vx	ground_force_1_vy	ground_force_1_vz	ground_force_1_px	ground_force_1_py	ground_force_1_pz	ground_force_1_mx	ground_force_1_my	ground_force_1_mz	ground_force_2_vx	ground_force_2_vy	ground_force_2_vz	ground_force_2_px	ground_force_2_py	ground_force_2_pz	ground_force_2_mx	ground_force_2_my	ground_force_2_mz	ground_force_3_vx	ground_force_3_vy	ground_force_3_vz	ground_force_3_px	ground_force_3_py	ground_force_3_pz	ground_force_3_mx	ground_force_3_my	ground_force_3_mz
0	3.78694	324.219	-39.1846	-0.270407	0.006	-0.424546	0	-0.427503	0	-1.89254	328.44	41.0562	-0.240577	0.006	-0.841343	0	0.880348	0	0	0	0	0	0	0	0	0	0
0.01	3.90717	324.666	-39.1763	-0.270626	0.006	-0.424714	0	-0.401865	0	-1.96159	328.99	41.1402	-0.240492	0.006	-0.84139	0	0.878475	0	0	0	0	0	0	0	0	0	0
0.02	4.05142	325.146	-39.1721	-0.270886	0.006	-0.424894	0	-0.373722	0	-2.04045	329.598	41.2378	-0.240395	0.006	-0.841436	0	0.874516	0	0	0	0	0	0	0	0	0	0
0.03	4.21941	325.647	-39.1728	-0.271187	0.006	-0.425085	0	-0.343329	0	-2.12874	330.252	41.3466	-0.240289	0.006	-0.841478	0	0.86824	0	0	0	0	0	0	0	0	0	0
0.04	4.4101	326.155	-39.1788	-0.271528	0.006	-0.425284	0	-0.310933	0	-2.22599	330.933	41.4629	-0.240173	0.006	-0.841515	0	0.859593	0	0	0	0	0	0	0	0	0	0
0.05	4.62208	326.651	-39.1893	-0.271906	0.006	-0.425493	0	-0.276893	0	-2.33136	331.622	41.5816	-0.24005	0.006	-0.841546	0	0.848692	0	0	0	0	0	0	0	0	0	0
0.06	4.85386	327.112	-39.2022	-0.272321	0.006	-0.42571	0	-0.241626	0	-2.44321	332.291	41.6966	-0.239921	0.006	-0.841571	0	0.835781	0	0	0	0	0	0	0	0	0	0
0.07	5.10427	327.515	-39.2138	-0.27277	0.006	-0.425937	0	-0.205561	0	-2.5585	332.914	41.801	-0.23979	0.006	-0.84159	0	0.821054	0	0	0	0	0	0	0	0	0	0
0.08	5.37247	327.836	-39.2199	-0.273252	0.006	-0.426173	0	-0.169163	0	-2.67256	333.463	41.8882	-0.239662	0.006	-0.841602	0	0.804707	0	0	0	0	0	0	0	0	0	0
0.09	5.65734	328.053	-39.2152	-0.273765	0.006	-0.426418	0	-0.132793	0	-2.77878	333.909	41.9521	-0.239541	0.006	-0.841607	0	0.786924	0	0	0	0	0	0	0	0	0	0
0.1	5.95725	328.141	-39.1945	-0.274309	0.006	-0.426674	0	-0.096654	0	-2.8686	334.229	41.9881	-0.239434	0.006	-0.841602	0	0.767818	0	0	0	0	0	0	0	0	0	0
0.11	6.27002	328.073	-39.1522	-0.274881	0.006	-0.42694	0	-0.060802	0	-2.93164	334.4	41.9927	-0.239348	0.006	-0.841584	0	0.747449	0	0	0	0	0	0	0	0	0	0
0.12	6.59246	327.821	-39.0828	-0.275479	0.006	-0.427216	0	-0.025057	0	-2.95669	334.402	41.9643	-0.239289	0.006	-0.841552	0	0.725709	0	0	0	0	0	0	0	0	0	0
0.13	6.91973	327.353	-38.9808	-0.276101	0.006	-0.427499	0	0.011045	0	-2.93304	334.217	41.9018	-0.239263	0.006	-0.841503	0	0.702319	0	0	0	0	0	0	0	0	0	0
0.14	7.2442	326.63	-38.8399	-0.27674	0.006	-0.42779	0	0.048203	0	-2.85177	333.825	41.8046	-0.239276	0.006	-0.841434	0	0.676808	0	0	0	0	0	0	0	0	0	0
0.15	7.55453	325.609	-38.6528	-0.27739	0.006	-0.428088	0	0.087249	0	-2.70672	333.204	41.6719	-0.23933	0.006	-0.841343	0	0.648728	0	0	0	0	0	0	0	0	0	0
0.16	7.83558	324.241	-38.4108	-0.278044	0.006	-0.428391	0	0.129043	0	-2.49555	332.326	41.5021	-0.239424	0.006	-0.841228	0	0.617785	0	0	0	0	0	0	0	0	0	0
0.17	8.06906	322.478	-38.1041	-0.27869	0.006	-0.4287	0	0.174483	0	-2.22041	331.158	41.2925	-0.239554	0.006	-0.841091	0	0.583778	0	0	0	0	0	0	0	0	0	0
0.18	8.23522	320.277	-37.7236	-0.279317	0.006	-0.429013	0	0.224439	0	-1.88863	329.658	41.0391	-0.239715	0.006	-0.840929	0	0.54645	0	0	0	0	0	0	0	0	0	0
0.19	8.31595	317.608	-37.2621	-0.279914	0.006	-0.429327	0	0.279572	0	-1.51299	327.781	40.7367	-0.239895	0.006	-0.840743	0	0.505592	0	0	0	0	0	0	0	0	0	0
0.2	8.29735	314.455	-36.7161	-0.28047	0.006	-0.429643	0	0.340201	0	-1.11165	325.48	40.3794	-0.240082	0.006	-0.840534	0	0.46115	0	0	0	0	0	0	0	0	0	0
0.21	8.17187	310.822	-36.087	-0.280977	0.006	-0.42996	0	0.406212	0	-0.70843	322.708	39.962	-0.24026	0.006	-0.840303	0	0.413302	0	0	0	0	0	0	0	0	0	0
0.22	7.93943	306.738	-35.3828	-0.281433	0.006	-0.430279	0	0.477258	0	-0.332856	319.422	39.4809	-0.240409	0.006	-0.840051	0	0.362457	0	0	0	0	0	0	0	0	0	0
0.23	7.60693	302.256	-34.6181	-0.281837	0.006	-0.430601	0	0.552861	0	-0.0188854	315.592	38.9352	-0.240508	0.006	-0.83978	0	0.309148	0	0	0	0	0	0	0	0	0	0
0.24	7.18711	297.45	-33.8139	-0.282191	0.006	-0.430927	0	0.632472	0	0.197786	311.201	38.3289	-0.240531	0.006	-0.839493	0	0.253871	0	0	0	0	0	0	0	0	0	0
0.25	6.69726	292.413	-32.9956	-0.282502	0.006	-0.431259	0	0.715354	0	0.282815	306.261	37.6704	-0.240453	0.006	-0.839195	0	0.196922	0	0	0	0	0	0	0	0	0	0
0.26	6.15786	287.252	-32.1911	-0.282772	0.006	-0.431595	0	0.800548	0	0.207507	300.812	36.973	-0.240251	0.006	-0.83889	0	0.138597	0	0	0	0	0	0	0	0	0	0
0.27	5.59238	282.082	-31.4287	-0.28301	0.006	-0.431938	0	0.886777	0	-0.0462648	294.924	36.2536	-0.239906	0.006	-0.838584	0	0.079298	0	0	0	0	0	0	0	0	0	0
0.28	5.02505	277.022	-30.7352	-0.283218	0.006	-0.432285	0	0.972375	0	-0.483347	288.694	35.5308	-0.239403	0.006	-0.838282	0	0.019739	0	0	0	0	0	0	0	0	0	0
0.29	4.47639	272.188	-30.1338	-0.283399	0.006	-0.432634	0	1.05546	0	-1.09636	282.23	34.823	-0.23873	0.006	-0.837991	0	-0.039148	0	0	0	0	0	0	0	0	0	0
0.3	3.96018	267.697	-29.6446	-0.283556	0.006	-0.432982	0	1.13393	0	-1.86799	275.65	34.1463	-0.237884	0.006	-0.837718	0	-0.096322	0	0	0	0	0	0	0	0	0	0
0.31	3.48467	263.66	-29.2843	-0.283687	0.006	-0.433322	0	1.20568	0	-2.77433	269.081	33.515	-0.236863	0.006	-0.837468	0	-0.1507	0	0	0	0	0	0	0	0	0	0
0.32	3.05582	260.183	-29.0648	-0.283793	0.006	-0.433648	0	1.26872	0	-3.78717	262.663	32.9431	-0.235678	0.006	-0.837244	0	-0.201178	0	0	0	0	0	0	0	0	0	0
0.33	2.68114	257.359	-28.9926	-0.283879	0.006	-0.433952	0	1.32132	0	-4.87413	256.552	32.4446	-0.234346	0.006	-0.83705	0	-0.246631	0	0	0	0	0	0	0	0	0	0
0.34	2.37314	255.261	-29.0681	-0.28395	0.006	-0.43423	0	1.36204	0	-5.99634	250.912	32.0327	-0.232897	0.006	-0.836884	0	-0.285962	0	0	0	0	0	0	0	0	0	0
0.35	2.14958	253.934	-29.2862	-0.284013	0.006	-0.434477	0	1.38993	0	-7.10542	245.898	31.7183	-0.231373	0.006	-0.836746	0	-0.318012	0	0	0	0	0	0	0	0	0	0
0.36	2.03039	253.391	-29.6372	-0.284076	0.006	-0.434695	0	1.40467	0	-8.14259	241.629	31.508	-0.229822	0.006	-0.836636	0	-0.341564	0	0	0	0	0	0	0	0	0	0
0.37	2.03243	253.617	-30.1087	-0.284141	0.006	-0.434884	0	1.40667	0	-9.04463	238.173	31.404	-0.228292	0.006	-0.836553	0	-0.355476	0	0	0	0	0	0	0	0	0	0
0.38	2.1635	254.575	-30.6886	-0.284206	0.006	-0.435044	0	1.397	0	-9.75679	235.542	31.4043	-0.226824	0.006	-0.836498	0	-0.358867	0	0	0	0	0	0	0	0	0	0
0.39	2.42039	256.211	-31.3656	-0.284263	0.006	-0.435177	0	1.37728	0	-10.2456	233.704	31.5042	-0.225442	0.006	-0.83647	0	-0.351325	0	0	0	0	0	0	0	0	0	0
0.4	2.79093	258.462	-32.1286	-0.284301	0.006	-0.435283	0	1.34952	0	-10.5034	232.597	31.6975	-0.224155	0.006	-0.836474	0	-0.332859	0	0	0	0	0	0	0	0	0	0
0.41	3.2585	261.257	-32.9676	-0.284308	0.006	-0.435365	0	1.31578	0	-10.5436	232.133	31.9764	-0.222957	0.006	-0.836511	0	-0.303775	0	0	0	0	0	0	0	0	0	0
0.42	3.80588	264.538	-33.8743	-0.284272	0.006	-0.435422	0	1.2779	0	-10.3927	232.211	32.3315	-0.22183	0.006	-0.836585	0	-0.26466	0	0	0	0	0	0	0	0	0	0
0.43	4.41706	268.257	-34.8415	-0.284185	0.006	-0.435458	0	1.2373	0	-10.0847	232.724	32.7532	-0.220749	0.006	-0.836699	0	-0.216245	0	0	0	0	0	0	0	0	0	0
0.44	5.07689	272.381	-35.8607	-0.28404	0.006	-0.435472	0	1.19491	0	-9.657	233.581	33.2334	-0.219687	0.006	-0.836857	0	-0.159298	0	0	0	0	0	0	0	0	0	0
0.45	5.76997	276.88	-36.9212	-0.283832	0.006	-0.435467	0	1.15111	0	-9.14675	234.71	33.7673	-0.218619	0.006	-0.837062	0	-0.0947	0	0	0	0	0	0	0	0	0	0
0.46	6.48112	281.718	-38.0099	-0.283562	0.006	-0.435443	0	1.10575	0	-8.58761	236.056	34.3529	-0.217528	0.006	-0.837314	0	-0.023532	0	0	0	0	0	0	0	0	0	0
0.47	7.19597	286.849	-39.1121	-0.283233	0.006	-0.435403	0	1.0582	0	-8.00764	237.586	34.9904	-0.216405	0.006	-0.837616	0	0.052907	0	0	0	0	0	0	0	0	0	0
0.48	7.8988	292.221	-40.2141	-0.282849	0.006	-0.43535	0	1.00761	0	-7.42915	239.287	35.6811	-0.215245	0.006	-0.837963	0	0.133173	0	0	0	0	0	0	0	0	0	0
0.49	8.56949	297.778	-41.3054	-0.282416	0.006	-0.435287	0	0.953009	0	-6.8698	241.172	36.4263	-0.214056	0.006	-0.838352	0	0.215723	0	0	0	0	0	0	0	0	0	0
0.5	9.18299	303.454	-42.3777	-0.281936	0.006	-0.435219	0	0.893444	0	-6.34488	243.271	37.225	-0.212846	0.006	-0.838776	0	0.298879	0	0	0	0	0	0	0	0	0	0
0.51	9.71259	309.173	-43.4227	-0.281416	0.006	-0.43515	0	0.828139	0	-5.86794	245.609	38.0722	-0.211627	0.006	-0.839225	0	0.380959	0	0	0	0	0	0	0	0	0	0
0.52	10.1346	314.849	-44.4307	-0.280859	0.006	-0.435082	0	0.756697	0	-5.45168	248.196	38.9591	-0.210406	0.006	-0.839689	0	0.460379	0	0	0	0	0	0	0	0	0	0
0.53	10.4305	320.39	-45.3912	-0.280265	0.006	-0.435018	0	0.679148	0	-5.11007	251.031	39.8742	-0.20919	0.006	-0.840156	0	0.535558	0	0	0	0	0	0	0	0	0	0
0.54	10.5847	325.704	-46.2944	-0.27963	0.006	-0.434955	0	0.595871	0	-4.85851	254.105	40.8043	-0.20798	0.006	-0.840615	0	0.604942	0	0	0	0	0	0	0	0	0	0
0.55	10.5855	330.696	-47.1334	-0.278944	0.006	-0.43489	0	0.507559	0	-4.70984	257.404	41.7349	-0.206778	0.006	-0.841054	0	0.667103	0	0	0	0	0	0	0	0	0	0
0.56	10.4286	335.28	-47.9033	-0.278197	0.006	-0.434817	0	0.415009	0	-4.66902	260.915	42.6515	-0.205585	0.006	-0.841463	0	0.720856	0	0	0	0	0	0	0	0	0	0
0.57	10.1227	339.384	-48.602	-0.277378	0.006	-0.434731	0	0.3189	0	-4.7291	264.631	43.5415	-0.204409	0.006	-0.841832	0	0.765339	0	0	0	0	0	0	0	0	0	0
0.58	9.68818	342.968	-49.2283	-0.276484	0.006	-0.434629	0	0.219771	0	-4.87129	268.546	44.3947	-0.203261	0.006	-0.842152	0	0.800098	0	0	0	0	0	0	0	0	0	0
0.59	9.15297	346.028	-49.7811	-0.275511	0.006	-0.434506	0	0.118124	0	-5.07091	272.66	45.2049	-0.202154	0.006	-0.842416	0	0.825007	0	0	0	0	0	0	0	0	0	0
0.6	8.54753	348.597	-50.2595	-0.274462	0.006	-0.434364	0	0.014493	0	-5.30411	276.965	45.9708	-0.201099	0.006	-0.842623	0	0.840118	0	0	0	0	0	0	0	0	0	0
0.61	7.90277	350.748	-50.665	-0.273343	0.006	-0.434202	0	-0.090361	0	-5.55082	281.447	46.6957	-0.200103	0.006	-0.842771	0	0.845636	0	0	0	0	0	0	0	0	0	0
0.62	7.2478	352.581	-51.0045	-0.272162	0.006	-0.434022	0	-0.195298	0	-5.79405	286.075	47.387	-0.199169	0.006	-0.842864	0	0.841895	0	0	0	0	0	0	0	0	0	0
0.63	6.60855	354.211	-51.2888	-0.270934	0.006	-0.433825	0	-0.29894	0	-6.01957	290.806	48.0546	-0.198292	0.006	-0.842907	0	0.829337	0	0	0	0	0	0	0	0	0	0
0.64	6.00836	355.747	-51.5291	-0.269677	0.006	-0.433617	0	-0.399888	0	-6.21844	295.588	48.7093	-0.197467	0.006	-0.842908	0	0.808568	0	0	0	0	0	0	0	0	0	0
0.65	5.46907	357.275	-51.7348	-0.268409	0.006	-0.433402	0	-0.496864	0	-6.38861	300.369	49.3606	-0.196682	0.006	-0.842873	0	0.780401	0	0	0	0	0	0	0	0	0	0
0.66	5.01037	358.851	-51.913	-0.267147	0.006	-0.433185	0	-0.588728	0	-6.53232	305.1	50.0144	-0.195927	0.006	-0.84281	0	0.745886	0	0	0	0	0	0	0	0	0	0
0.67	4.64672	360.499	-52.0699	-0.265905	0.006	-0.432971	0	-0.674497	0	-6.65236	309.728	50.6688	-0.195192	0.006	-0.842723	0	0.706301	0	0	0	0	0	0	0	0	0	0
0.68	4.38413	362.216	-52.212	-0.264692	0.006	-0.432764	0	-0.753455	0	-6.75167	314.202	51.3145	-0.194466	0.006	-0.842618	0	0.66325	0	0	0	0	0	0	0	0	0	0
0.69	4.21697	363.986	-52.3464	-0.263513	0.006	-0.432566	0	-0.825213	0	-6.8363	318.473	51.9351	-0.193739	0.006	-0.842497	0	0.618616	0	0	0	0	0	0	0	0	0	0
0.7	4.12738	365.79	-52.4815	-0.262369	0.006	-0.432378	0	-0.889714	0	-6.91823	322.499	52.5102	-0.193004	0.006	-0.842361	0	0.574573	0	0	0	0	0	0	0	0	0	0
0.71	4.09102	367.615	-52.6255	-0.261259	0.006	-0.432201	0	-0.947242	0	-7.01463	326.244	53.0173	-0.192255	0.006	-0.842212	0	0.533541	0	0	0	0	0	0	0	0	0	0
0.72	4.08378	369.465	-52.7843	-0.260181	0.006	-0.432034	0	-0.998395	0	-7.14513	329.681	53.4349	-0.191486	0.006	-0.84205	0	0.497952	0	0	0	0	0	0	0	0	0	0
0.73	4.08424	371.352	-52.9609	-0.259135	0.006	-0.431877	0	-1.04399	0	-7.32894	332.788	53.7435	-0.190692	0.006	-0.841879	0	0.469961	0	0	0	0	0	0	0	0	0	0
0.74	4.07315	373.293	-53.155	-0.258121	0.006	-0.431731	0	-1.08496	0	-7.58312	335.558	53.9301	-0.189871	0.006	-0.841698	0	0.451169	0	0	0	0	0	0	0	0	0	0
0.75	4.03263	375.301	-53.3616	-0.257139	0.006	-0.431596	0	-1.12229	0	-7.92023	337.998	53.9902	-0.189024	0.006	-0.841512	0	0.442589	0	0	0	0	0	0	0	0	0	0
0.76	3.94686	377.371	-53.5707	-0.256189	0.006	-0.431474	0	-1.15686	0	-8.34526	340.139	53.9275	-0.188155	0.006	-0.841323	0	0.444738	0	0	0	0	0	0	0	0	0	0
0.77	3.80524	379.498	-53.7695	-0.255272	0.006	-0.431367	0	-1.18952	0	-8.85383	342.025	53.7532	-0.187274	0.006	-0.841134	0	0.457609	0	0	0	0	0	0	0	0	0	0
0.78	3.6038	381.681	-53.9453	-0.254392	0.006	-0.431278	0	-1.2211	0	-9.43324	343.708	53.484	-0.186392	0.006	-0.840948	0	0.480761	0	0	0	0	0	0	0	0	0	0
0.79	3.34329	383.934	-54.0878	-0.253553	0.006	-0.431208	0	-1.25238	0	-10.0658	345.24	53.1418	-0.185523	0.006	-0.84077	0	0.513496	0	0	0	0	0	0	0	0	0	0
